HIERARCHY
ROOT Hips
{
 OFFSET 0.000000 0.000000 0.000000
 CHANNELS 6 Xposition Yposition Zposition Yrotation Xrotation Zrotation
 JOINT Chest
 {
  OFFSET 0.000000 9.585900 0.002600
  CHANNELS 3 Yrotation Xrotation Zrotation
  JOINT Chest2
  {
   OFFSET 0.000000 9.601200 -0.005300
   CHANNELS 3 Yrotation Xrotation Zrotation
   JOINT Chest3
   {
    OFFSET 0.000000 9.561800 0.000000
    CHANNELS 3 Yrotation Xrotation Zrotation
    JOINT Chest4
    {
     OFFSET 0.000000 9.552100 0.000000
     CHANNELS 3 Yrotation Xrotation Zrotation
     JOINT Neck
     {
      OFFSET 0.000000 14.453000 0.000000
      CHANNELS 3 Yrotation Xrotation Zrotation
      JOINT Head
      {
       OFFSET 0.000000 8.936500 -0.011300
       CHANNELS 3 Yrotation Xrotation Zrotation
       End Site
       {
        OFFSET 0.000000 17.073600 -0.006000
       }
      }
     }
     JOINT RightCollar
     {
      OFFSET -2.921100 9.558500 0.000000
      CHANNELS 3 Yrotation Xrotation Zrotation
      JOINT RightShoulder
      {
       OFFSET -13.519700 0.000000 0.000000
       CHANNELS 3 Yrotation Xrotation Zrotation
       JOINT RightElbow
       {
        OFFSET 0.000000 -29.696600 0.000000
        CHANNELS 3 Yrotation Xrotation Zrotation
        JOINT RightWrist
        {
         OFFSET 0.000000 -24.004700 0.000000
         CHANNELS 3 Yrotation Xrotation Zrotation
         End Site
         {
          OFFSET 0.000000 -17.728500 0.000000
         }
        }
       }
      }
     }
     JOINT LeftCollar
     {
      OFFSET 2.921100 9.558500 0.000000
      CHANNELS 3 Yrotation Xrotation Zrotation
      JOINT LeftShoulder
      {
       OFFSET 13.519700 0.000000 0.000000
       CHANNELS 3 Yrotation Xrotation Zrotation
       JOINT LeftElbow
       {
        OFFSET 0.000000 -29.696600 0.000000
        CHANNELS 3 Yrotation Xrotation Zrotation
        JOINT LeftWrist
        {
         OFFSET 0.000000 -24.004700 0.000000
         CHANNELS 3 Yrotation Xrotation Zrotation
         End Site
         {
          OFFSET 0.000000 -17.728500 0.000000
         }
        }
       }
      }
     }
    }
   }
  }
 }
 JOINT RightHip
 {
  OFFSET -7.771700 -0.012900 -0.001300
  CHANNELS 3 Yrotation Xrotation Zrotation
  JOINT RightKnee
  {
   OFFSET 0.000000 -40.869800 0.001200
   CHANNELS 3 Yrotation Xrotation Zrotation
   JOINT RightAnkle
   {
    OFFSET 0.000000 -39.717900 0.002100
    CHANNELS 3 Yrotation Xrotation Zrotation
    JOINT RightToe
    {
     OFFSET 0.000000 -4.965400 11.033500
     CHANNELS 3 Yrotation Xrotation Zrotation
     End Site
     {
      OFFSET 0.000000 -1.423100 5.872300
     }
    }
   }
  }
 }
 JOINT LeftHip
 {
  OFFSET 7.771700 -0.012900 -0.001300
  CHANNELS 3 Yrotation Xrotation Zrotation
  JOINT LeftKnee
  {
   OFFSET 0.000000 -40.869800 0.001200
   CHANNELS 3 Yrotation Xrotation Zrotation
   JOINT LeftAnkle
   {
    OFFSET 0.000000 -39.717900 0.002100
    CHANNELS 3 Yrotation Xrotation Zrotation
    JOINT LeftToe
    {
     OFFSET 0.000000 -4.965400 11.033500
     CHANNELS 3 Yrotation Xrotation Zrotation
     End Site
     {
      OFFSET 0.000000 -1.423100 5.872300
     }
    }
   }
  }
 }
}
MOTION
Frames: 15
Frame Time: 0.008333
0.000000 85.388000 0.000000 0.000000 -5.767877 0.000000 0.000000 11.653817 0.000000 0.000000 -5.885947 0.000000 0.000000 -0.000000 0.000000 0.000000 -0.000000 0.000000 0.000000 12.528835 0.000000 0.000000 0.711642 0.000000 0.000000 -0.000000 0.000000 0.000000 0.000000 -90.000000 0.000000 -2.309062 0.000000 0.000000 2.309062 0.000000 0.000000 -0.000000 0.000000 0.000000 -0.000000 90.000000 0.000000 -2.309062 0.000000 0.000000 2.309062 0.000000 0.000000 8.520406 0.000000 0.000000 1.905762 0.000000 -0.000000 -4.658285 0.000000 0.000000 -0.000000 0.000000 0.000000 8.520406 0.000000 0.000000 1.905762 0.000000 -0.000000 -4.658285 0.000000 0.000000 -0.000000 0.000000
-54.048885 57.752478 11.224168 -179.661246 -50.257357 -2.114196 3.476524 20.513202 3.738997 1.841352 11.829664 2.087767 2.276506 14.721160 2.668709 1.758098 11.779981 2.083079 -1.447546 16.998904 2.853013 -3.767410 -4.130881 5.758148 8.179802 -3.856313 1.799620 20.573061 -48.524325 -30.090565 -46.014730 -35.145320 100.741049 -6.181877 -2.829121 -19.948955 -10.637400 2.683978 1.615162 16.246918 -35.474771 7.602090 105.590745 -59.683591 -120.874735 -1.273848 4.486351 -2.846325 5.302439 -20.946461 -5.347951 -34.477050 75.768486 -39.619190 6.160487 -17.336436 12.922028 -0.064207 -0.314537 0.042636 -6.760336 -19.068683 3.523605 86.640934 82.156188 85.146232 -0.238223 -21.874733 -17.526115 0.142389 0.088069 0.104822
-54.061257 57.750308 11.216182 -179.574416 -50.248776 -2.159070 3.488018 20.538678 3.754304 1.832529 11.833382 2.079684 2.295436 14.741352 2.659534 1.759234 11.787491 2.076751 -1.441445 16.955580 2.911865 -3.699160 -4.199344 5.887109 8.216838 -3.859507 1.869424 20.480293 -48.492709 -29.903029 -47.039950 -35.656535 102.307987 -5.934953 -2.446539 -19.768536 -10.575586 2.673351 1.678831 16.402664 -35.400982 7.547200 105.792060 -59.579569 -121.201049 -1.237288 4.493443 -2.827193 5.268128 -20.941850 -5.348889 -34.582572 75.761317 -39.753879 6.138543 -17.328753 12.929293 -0.045214 -0.307657 0.051827 -6.758142 -19.088006 3.519838 86.718468 82.182669 85.232163 -0.280863 -21.881475 -17.498234 0.155171 0.080738 0.122514
-54.076337 57.749191 11.206697 -179.465773 -50.250330 -2.215986 3.531496 20.599817 3.784466 1.768821 11.809619 2.064471 2.273446 14.725445 2.660213 1.783012 11.836296 2.053546 -1.445167 16.896257 2.961626 -3.639629 -4.233820 5.969640 8.258431 -3.856920 1.933694 20.306360 -48.476254 -29.678448 -47.977332 -36.106879 103.805511 -5.698080 -2.070239 -19.578276 -10.501284 2.668433 1.737144 16.564920 -35.322980 7.493092 105.980839 -59.472220 -121.519120 -1.201509 4.503414 -2.813855 5.221378 -20.921488 -5.357142 -34.662324 75.753962 -39.876254 6.125317 -17.362059 12.952039 -0.041681 -0.267075 0.055359 -6.775728 -19.095345 3.511316 86.832187 82.211817 85.314100 -0.253451 -21.870287 -17.435363 0.100654 0.076324 0.099884
-54.094659 57.747418 11.197982 -179.377183 -50.249591 -2.248067 3.512481 20.630505 3.767707 1.756239 11.808751 2.060488 2.261722 14.720139 2.658679 1.784971 11.856456 2.044865 -1.433662 16.866831 2.989938 -3.594508 -4.255963 6.032026 8.307416 -3.818528 1.984396 20.076520 -48.460352 -29.438095 -48.818046 -36.488582 105.225994 -5.462030 -1.715170 -19.386441 -10.413722 2.695539 1.771856 16.732978 -35.241641 7.439624 106.151840 -59.361338 -121.821153 -1.151840 4.517848 -2.846680 5.194117 -20.904220 -5.372498 -34.747733 75.746459 -40.016262 6.147777 -17.355843 12.960778 -0.072398 -0.275507 0.073586 -6.776329 -19.106572 3.484520 86.880920 82.234596 85.363942 -0.269211 -21.870752 -17.424255 0.104025 0.075192 0.117176
-54.111260 57.745622 11.190521 -179.289737 -50.249640 -2.297561 3.473780 20.647247 3.758607 1.745810 11.803684 2.058970 2.298824 14.800829 2.636777 1.755504 11.778191 2.071765 -1.402090 16.889656 3.003987 -3.564372 -4.290905 6.094759 8.350802 -3.742992 2.027351 19.807190 -48.436239 -29.200885 -49.558936 -36.800505 106.569127 -5.233554 -1.398742 -19.203990 -10.327904 2.755731 1.787020 16.906947 -35.156485 7.387493 106.309105 -59.247262 -122.114922 -1.136351 4.520210 -2.815116 5.173533 -20.878165 -5.364382 -34.837652 75.721936 -40.138777 6.131965 -17.361552 12.987920 -0.068546 -0.257390 0.076011 -6.781875 -19.114564 3.475617 86.915420 82.254017 85.401857 -0.292743 -21.876699 -17.398422 0.115337 0.078821 0.120252
-54.135082 57.742999 11.185261 -179.240090 -50.246481 -2.280667 3.441403 20.662082 3.706877 1.757728 11.828384 2.054776 2.292360 14.824831 2.628742 1.748969 11.776838 2.069719 -1.352610 16.913401 3.050983 -3.543560 -4.367838 6.146433 8.379491 -3.716777 2.082580 19.498195 -48.405237 -28.967066 -50.193600 -37.046076 107.834676 -5.027059 -1.127547 -19.037302 -10.251428 2.773502 1.827294 17.084364 -35.067558 7.337914 106.454967 -59.134681 -122.398349 -1.126960 4.527139 -2.779683 5.173911 -20.866553 -5.411394 -34.853086 75.719323 -40.197371 6.150766 -17.328343 13.003744 -0.091140 -0.283182 0.073318 -6.761625 -19.129418 3.425138 86.932053 82.264675 85.412609 -0.345352 -21.904896 -17.377462 0.148522 0.099799 0.137307
-54.149781 57.741446 11.181676 -179.173306 -50.249774 -2.335493 3.445612 20.688992 3.727934 1.748880 11.838650 2.051303 2.272065 14.839611 2.621659 1.740442 11.849534 2.048650 -1.314172 16.836852 3.102210 -3.499008 -4.395896 6.193662 8.403744 -3.750760 2.142737 19.141515 -48.377005 -28.722991 -50.713937 -37.226750 109.021320 -4.845736 -0.887526 -18.888245 -10.170622 2.734927 1.891223 17.261639 -34.974780 7.289693 106.586604 -59.030532 -122.659425 -1.111429 4.533601 -2.769325 5.154608 -20.843297 -5.390826 -34.868811 75.701388 -40.241528 6.111751 -17.354473 13.036719 -0.085458 -0.247278 0.081358 -6.794135 -19.126550 3.433127 86.944842 82.265121 85.400509 -0.328434 -21.885950 -17.343020 0.108549 0.098679 0.101591
-54.164218 57.739650 11.180719 -179.122042 -50.251541 -2.382268 3.451270 20.716664 3.742418 1.740374 11.849459 2.048754 2.256855 14.850502 2.618808 1.731811 11.860552 2.046135 -1.282508 16.823770 3.130067 -3.479959 -4.433409 6.212518 8.416165 -3.715815 2.189753 18.725950 -48.362977 -28.451584 -51.112485 -37.339968 110.128978 -4.687818 -0.659378 -18.757005 -10.123485 2.715396 1.919570 17.452994 -34.842858 7.258326 106.705482 -58.937653 -122.899871 -1.087719 4.526462 -2.782615 5.154915 -20.820269 -5.370339 -34.911065 75.676252 -40.278939 6.070724 -17.358774 13.057833 -0.069304 -0.225418 0.082709 -6.790286 -19.132880 3.451347 86.965336 82.281695 85.420500 -0.354494 -21.884864 -17.307559 0.108542 0.097751 0.104736
-54.174623 57.739366 11.181174 -178.994487 -50.261464 -2.513133 3.413802 20.749916 3.782858 1.732134 11.860478 2.045716 2.243022 14.839286 2.623712 1.727352 11.866101 2.045043 -1.260968 16.841042 3.151268 -3.458955 -4.468858 6.226556 8.407291 -3.644470 2.231886 18.248008 -48.366218 -28.144385 -51.380048 -37.380862 111.155471 -4.544741 -0.436784 -18.640919 -10.042476 2.777363 1.938083 17.602096 -34.761092 7.209255 106.821534 -58.818956 -123.161592 -1.070940 4.517301 -2.798279 5.135218 -20.773680 -5.316547 -35.021618 75.628405 -40.352853 6.033041 -17.363012 13.055828 -0.011684 -0.174223 0.074563 -6.843348 -19.132220 3.490669 87.021350 82.298042 85.492429 -0.369308 -21.883288 -17.299765 0.120432 0.099802 0.108474
-54.188613 57.736291 11.186278 -178.959214 -50.251967 -2.552001 3.420047 20.762174 3.796822 1.722621 11.871607 2.044468 2.233422 14.828717 2.627151 1.722621 11.871662 2.044463 -1.239890 16.858748 3.171029 -3.365772 -4.467245 6.295977 8.404446 -3.622372 2.250630 17.662936 -48.335062 -27.760776 -51.517276 -37.353297 112.095013 -4.403059 -0.228421 -18.538715 -9.965417 2.838710 1.949744 17.732485 -34.678920 7.173849 106.936642 -58.759935 -123.370042 -1.048917 4.507009 -2.807295 5.120046 -20.778104 -5.298728 -34.956175 75.628085 -40.324858 6.055259 -17.351156 13.051454 -0.041480 -0.180809 0.091407 -6.806283 -19.162713 3.515836 87.083437 82.327987 85.591370 -0.400158 -21.861163 -17.302101 0.150517 0.079538 0.122729
-54.208115 57.733901 11.192988 -178.903408 -50.246899 -2.574258 3.425271 20.796582 3.773190 1.695043 11.861242 2.053970 2.221989 14.842735 2.625130 1.713589 11.882739 2.042977 -1.207609 16.852632 3.195869 -3.307636 -4.472770 6.345174 8.404857 -3.625665 2.269781 17.057941 -48.296177 -27.379323 -51.560173 -37.276953 112.950426 -4.257578 -0.041247 -18.457971 -9.899723 2.859627 1.969727 17.856972 -34.581475 7.152831 107.051823 -58.708679 -123.564469 -1.017232 4.486109 -2.799672 5.138959 -20.761114 -5.303008 -34.856525 75.611856 -40.271753 6.018567 -17.336863 13.128299 -0.069029 -0.184513 0.085186 -6.807824 -19.183922 3.504495 87.103103 82.339055 85.601677 -0.428440 -21.851218 -17.268150 0.155163 0.076220 0.127559
-54.225160 57.732575 11.201248 -178.832395 -50.246611 -2.623738 3.405693 20.815871 3.765211 1.701708 11.903584 2.043637 2.205031 14.857972 2.628802 1.703291 11.860608 2.054910 -1.176294 16.833537 3.213878 -3.266248 -4.468258 6.387364 8.378331 -3.574920 2.300560 16.540707 -48.279101 -27.078289 -51.566152 -37.177271 113.728211 -4.109880 0.128700 -18.406442 -9.842005 2.882657 1.990254 17.971209 -34.490367 7.132850 107.164686 -58.645911 -123.751074 -1.012241 4.489677 -2.788077 5.167823 -20.733678 -5.295703 -34.903986 75.573943 -40.298871 5.960160 -17.330146 13.169378 -0.061917 -0.157708 0.073097 -6.826974 -19.197968 3.514649 87.066869 82.348734 85.533150 -0.444045 -21.835206 -17.210443 0.129860 0.084769 0.110854
-54.236355 57.733444 11.210127 -178.758733 -50.259077 -2.711496 3.393258 20.839922 3.795112 1.706318 11.916409 2.041383 2.204024 14.881663 2.628607 1.695747 11.902077 2.049634 -1.160043 16.753031 3.246332 -3.224407 -4.431963 6.433165 8.274581 -3.483505 2.358680 16.195314 -48.291557 -26.895396 -51.582546 -37.075606 114.430865 -3.972996 0.282676 -18.379557 -9.803875 2.878278 2.039139 18.074769 -34.406788 7.112578 107.272720 -58.591634 -123.922598 -1.002025 4.486096 -2.783541 5.168533 -20.700091 -5.256508 -34.952164 75.541707 -40.315878 5.924037 -17.319866 13.174784 -0.026344 -0.129648 0.056974 -6.861271 -19.195294 3.548716 87.109449 82.357214 85.585845 -0.457107 -21.828659 -17.210839 0.144156 0.082515 0.114856
-54.249105 57.735237 11.220339 -178.688343 -50.275405 -2.788753 3.391212 20.865554 3.812859 1.705717 11.926907 2.045332 2.193026 14.877264 2.641849 1.702285 11.930832 2.043032 -1.145993 16.754485 3.277100 -3.198121 -4.427688 6.474728 8.181831 -3.405684 2.395477 15.890178 -48.201816 -26.755137 -51.642687 -36.984850 115.056837 -3.865694 0.416890 -18.366938 -9.785415 2.918282 2.073520 18.168388 -34.327732 7.093670 107.375279 -58.547397 -124.084927 -1.023322 4.549299 -2.743066 5.171808 -20.660066 -5.229844 -34.974780 75.508301 -40.307964 5.908921 -17.316170 13.166688 -0.022269 -0.116535 0.080260 -6.897012 -19.186585 3.575295 87.112078 82.362937 85.570831 -0.439258 -21.820271 -17.202607 0.126256 0.092813 0.118236
